<svg width="94" height="92" viewBox="0 0 94 92" fill="none" xmlns="http://www.w3.org/2000/svg">
    <circle cx="7" cy="7" r="7" fill="#DEC4D6"/>
    <circle cx="27" cy="7" r="7" fill="#DEC4D6"/>
    <circle cx="47" cy="7" r="7" fill="#DEC4D6"/>
    <circle cx="67" cy="7" r="7" fill="#DEC4D6"/>
    <circle cx="87" cy="7" r="7" fill="#DEC4D6"/>
    <circle cx="87" cy="26" r="7" fill="#DEC4D6"/>
    <circle cx="27" cy="26" r="7" fill="#DEC4D6"/>
    <circle cx="47" cy="26" r="7" fill="#DEC4D6"/>
    <circle cx="67" cy="26" r="7" fill="#DEC4D6"/>
    <circle cx="87" cy="26" r="7" fill="#DEC4D6"/>
    <circle cx="8" cy="26" r="7" fill="#DEC4D6"/>
    <circle cx="27" cy="46" r="7" fill="#DEC4D6"/>
    <circle cx="47" cy="46" r="7" fill="#DEC4D6"/>
    <circle cx="67" cy="46" r="7" fill="#DEC4D6"/>
    <circle cx="87" cy="46" r="7" fill="#DEC4D6"/>
    <circle cx="8" cy="46" r="7" fill="#DEC4D6"/>
    <circle cx="27" cy="66" r="7" fill="#DEC4D6"/>
    <circle cx="47" cy="66" r="7" fill="#DEC4D6"/>
    <circle cx="67" cy="66" r="7" fill="#DEC4D6"/>
    <circle cx="87" cy="66" r="7" fill="#DEC4D6"/>
    <circle cx="8" cy="66" r="7" fill="#DEC4D6"/>
    <circle cx="27" cy="85" r="7" fill="#DEC4D6"/>
    <circle cx="47" cy="85" r="7" fill="#DEC4D6"/>
    <circle cx="67" cy="85" r="7" fill="#DEC4D6"/>
    <circle cx="87" cy="85" r="7" fill="#DEC4D6"/>
    <circle cx="8" cy="85" r="7" fill="#DEC4D6"/>
</svg>
